<svg width="56" height="56" viewBox="0 0 56 56" fill="none" xmlns="http://www.w3.org/2000/svg">
<g id="Progress illustrations">
<g id="Frame 1611">
<g id="Dark mode">
<g id="Illustrations/ Learning path">
<g id="Level=2, Disabled=false, Size=small">
<g id="Level 2">
<g id="Group">
<path id="Vector" fill-rule="evenodd" clip-rule="evenodd" d="M28.2692 51.9407C21.1493 49.7621 7 43.311 7 32.0958V7.40435C10.1178 6.62388 13.7136 5.92052 17.5612 5.37222C21.4096 4.82392 25.0584 4.4958 28.2692 4.375C31.4801 4.4958 35.1288 4.82392 38.9772 5.37222C42.8257 5.92052 46.4206 6.62388 49.5385 7.40435V32.0958C49.5385 43.3119 35.3891 49.7621 28.2692 51.9407Z" fill="#52B69A"/>
<path id="Vector_2" fill-rule="evenodd" clip-rule="evenodd" d="M28.295 47.5149C35.0231 45.2257 45.4836 39.7941 45.4836 31.9723V10.5416C43.1467 10.0464 40.7868 9.64031 38.4294 9.30448C35.0769 8.82729 31.6791 8.4846 28.295 8.35095C24.91 8.4846 21.5131 8.82729 18.1605 9.30448C15.8031 9.64031 13.4424 10.0464 11.1055 10.5416V31.9723C11.1055 39.7941 21.5668 45.2257 28.295 47.5149Z" fill="#76C893"/>
<path id="Vector_3" fill-rule="evenodd" clip-rule="evenodd" d="M11.0176 22.9761V31.4507L30.4435 46.7291C32.5657 45.8807 34.8746 44.7747 37.0299 43.4348L11.0176 22.9761Z" fill="#99D98C"/>
<path id="Vector_4" fill-rule="evenodd" clip-rule="evenodd" d="M15.2431 9.7868C13.8298 10.0231 12.419 10.2854 11.0176 10.5832V14.9387L42.0966 39.3841C43.7438 37.6164 44.9255 35.6195 45.2823 33.4169L15.2431 9.7868Z" fill="#99D98C"/>
<path id="Vector_5" fill-rule="evenodd" clip-rule="evenodd" d="M35.1539 8.93843C32.845 8.67611 30.522 8.48468 28.206 8.39252C26.814 8.44687 25.4173 8.53904 24.0254 8.65956L45.3939 25.467V16.9924L35.1539 8.93843Z" fill="#99D98C"/>
<path id="Vector_6" fill-rule="evenodd" clip-rule="evenodd" d="M38.6908 7.39944C35.2435 6.90855 31.7501 6.55815 28.2695 6.42365V8.47291C31.6545 8.60656 35.0514 8.94924 38.404 9.42643C40.7614 9.76227 43.1213 10.1684 45.4582 10.6635L47.498 9.0332C44.5902 8.34697 41.6379 7.81838 38.6899 7.39859L38.6908 7.39944Z" fill="#B5E48C"/>
<path id="Vector_7" fill-rule="evenodd" clip-rule="evenodd" d="M28.2692 6.42426V4.375C25.0584 4.4958 21.4096 4.82392 17.5612 5.37222C13.7136 5.92052 10.1178 6.62388 7 7.40435L9.03987 9.03468C11.9477 8.34845 14.9 7.81985 17.848 7.40006C21.2953 6.90917 24.7887 6.55877 28.2692 6.42426Z" fill="#52B69A"/>
<path id="Vector_8" fill-rule="evenodd" clip-rule="evenodd" d="M28.2694 8.47291V6.42365C24.7888 6.55815 21.2955 6.90855 17.8482 7.39944C14.9002 7.81924 11.9479 8.34783 9.04004 9.01864C9.04004 9.03406 11.0799 10.6635 11.0799 10.6635C13.4168 10.1684 15.7767 9.76227 18.1349 9.42643C21.4875 8.94924 24.8844 8.60656 28.2694 8.47291Z" fill="#D9ED92"/>
<path id="Vector_9" fill-rule="evenodd" clip-rule="evenodd" d="M9.04004 9.03497V32.0961C9.04004 41.292 20.6203 47.3336 28.2694 49.7949V47.6377C21.5413 45.3486 11.0799 39.917 11.0799 32.0952V10.6653L9.04004 9.03497Z" fill="#168AAD"/>
<path id="Vector_10" fill-rule="evenodd" clip-rule="evenodd" d="M47.499 9.03497V32.0961C47.499 41.292 35.9187 47.3336 28.2697 49.7949V47.6377C34.9978 45.3486 45.4592 39.917 45.4592 32.0952V10.6653L47.499 9.03497Z" fill="#34A0A4"/>
</g>
<path id="3" d="M21.0556 33.0489C21.6852 32.5598 21.9722 32.3333 21.9167 32.3696C23.7315 30.9022 25.1574 29.6975 26.1944 28.7554C27.25 27.8134 28.1389 26.8261 28.8611 25.7935C29.5833 24.7609 29.9444 23.7554 29.9444 22.7772C29.9444 22.0344 29.7685 21.4547 29.4167 21.038C29.0648 20.6214 28.537 20.413 27.8333 20.413C27.1296 20.413 26.5741 20.6757 26.1667 21.2011C25.7778 21.7083 25.5833 22.433 25.5833 23.375H21C21.037 21.8351 21.3704 20.5489 22 19.5163C22.6481 18.4837 23.4907 17.7228 24.5278 17.2337C25.5833 16.7446 26.75 16.5 28.0278 16.5C30.2315 16.5 31.8889 17.0525 33 18.1576C34.1296 19.2627 34.6944 20.7029 34.6944 22.4783C34.6944 24.4167 34.0185 26.2192 32.6667 27.8859C31.3148 29.5344 29.5926 31.1467 27.5 32.7228H35V36.5H21.0556V33.0489Z" fill="#F9F9FA"/>
</g>
</g>
</g>
</g>
</g>
</g>
</svg>
