<svg width="40" height="40" viewBox="0 0 40 40" fill="none" xmlns="http://www.w3.org/2000/svg">
<g id="Progress illustrations">
<g id="Frame 1611">
<g id="Dark mode">
<g id="Illustrations/ Progress">
<g id="Type=Certificates" clip-path="url(#clip0_5502_20087)">
<g id="medal-star">
<path id="Vector" d="M35.4165 30.75L32.6665 31.4C32.0498 31.55 31.5665 32.0167 31.4331 32.6333L30.8498 35.0833C30.5331 36.4167 28.8331 36.8167 27.9498 35.7667L19.9998 26.6333L12.0498 35.7833C11.1665 36.8333 9.46647 36.4333 9.14981 35.1L8.56647 32.65C8.41647 32.0333 7.93314 31.55 7.33314 31.4167L4.58314 30.7667C3.31647 30.4667 2.86647 28.8833 3.78314 27.9666L10.2831 21.4667C12.0831 24.1333 14.9331 26.0167 18.2498 26.5C18.8165 26.6 19.3998 26.65 19.9998 26.65C20.5998 26.65 21.1831 26.6 21.7498 26.5C25.0665 26.0167 27.9165 24.1333 29.7165 21.4667L36.2165 27.9666C37.1331 28.8666 36.6831 30.45 35.4165 30.75Z" fill="#FF8800"/>
<g id="Frame 1609" clip-path="url(#clip1_5502_20087)">
<path id="Vector_2" d="M35.4165 30.75L32.6665 31.4C32.0498 31.55 31.5665 32.0167 31.4331 32.6334L30.8498 35.0834C30.5331 36.4167 28.8331 36.8167 27.9498 35.7667L19.9998 26.6334L12.0498 35.7833C11.1665 36.8333 9.46647 36.4333 9.14981 35.1L8.56647 32.65C8.41647 32.0333 7.93314 31.55 7.33314 31.4167L4.58314 30.7667C3.31647 30.4667 2.86647 28.8833 3.78314 27.9667L10.2831 21.4667C12.0831 24.1333 14.9331 26.0167 18.2498 26.5C18.8165 26.6 19.3998 26.65 19.9998 26.65C20.5998 26.65 21.1831 26.6 21.7498 26.5C25.0665 26.0167 27.9165 24.1333 29.7165 21.4667L36.2165 27.9667C37.1331 28.8667 36.6831 30.45 35.4165 30.75Z" fill="#FF8800"/>
</g>
<path id="Vector_3" d="M20 5.00033C25.5294 5.0005 30 9.47091 30 15.0003C29.9999 17.0765 29.387 18.9699 28.335 20.5511C26.7865 22.845 24.3428 24.4545 21.5098 24.8675L21.4844 24.8714L21.46 24.8753C20.993 24.9577 20.5069 25.0003 20 25.0003C19.493 25.0003 19.0061 24.9577 18.5391 24.8753L18.4902 24.8675L17.9639 24.7757C15.3583 24.251 13.1219 22.7055 11.6699 20.5589C10.6147 18.9761 10.0001 17.0799 10 15.0003C10 9.4708 14.4705 5.00033 20 5.00033Z" fill="#FFD86D" stroke="#FFD001" stroke-width="3.33333"/>
<g id="Frame 1608" clip-path="url(#clip2_5502_20087)">
<path id="Vector_4" d="M20 5.00032C25.5294 5.0005 30 9.4709 30 15.0003C29.9999 17.0765 29.387 18.9699 28.335 20.5511C26.7865 22.845 24.3428 24.4545 21.5098 24.8675L21.4844 24.8714L21.46 24.8753C20.993 24.9577 20.5069 25.0003 20 25.0003C19.493 25.0003 19.0061 24.9577 18.5391 24.8753L18.4902 24.8675L17.9639 24.7757C15.3583 24.251 13.1219 22.7055 11.6699 20.5589C10.6147 18.9761 10.0001 17.0799 10 15.0003C10 9.4708 14.4705 5.00032 20 5.00032Z" fill="#FFD001" stroke="#FFB700" stroke-width="3.33333"/>
</g>
<path id="Vector_5" d="M20.9663 9.96666L21.9496 11.9333C22.083 12.2 22.433 12.4667 22.7496 12.5167L24.533 12.8166C25.6663 13 25.933 13.8333 25.1163 14.65L23.733 16.0333C23.4996 16.2666 23.3663 16.7167 23.4496 17.05L23.8496 18.7667C24.1663 20.1167 23.4496 20.65 22.2496 19.9333L20.583 18.95C20.283 18.7666 19.783 18.7666 19.483 18.95L17.8163 19.9333C16.6163 20.6333 15.8996 20.1167 16.2163 18.7667L16.6163 17.05C16.683 16.7333 16.5663 16.2666 16.333 16.0333L14.9496 14.65C14.133 13.8333 14.3996 13.0166 15.533 12.8166L17.3163 12.5167C17.6163 12.4667 17.9663 12.2 18.0996 11.9333L19.083 9.96666C19.5663 8.9 20.433 8.9 20.9663 9.96666Z" fill="#FFB700"/>
<g id="Frame 1610" clip-path="url(#clip3_5502_20087)">
<path id="Vector_6" d="M20.9663 9.96666L21.9496 11.9333C22.083 12.2 22.433 12.4667 22.7496 12.5167L24.533 12.8166C25.6663 13 25.933 13.8333 25.1163 14.65L23.733 16.0333C23.4996 16.2666 23.3663 16.7167 23.4496 17.05L23.8496 18.7667C24.1663 20.1167 23.4496 20.65 22.2496 19.9333L20.583 18.95C20.283 18.7666 19.783 18.7666 19.483 18.95L17.8163 19.9333C16.6163 20.6333 15.8996 20.1167 16.2163 18.7667L16.6163 17.05C16.683 16.7333 16.5663 16.2666 16.333 16.0333L14.9496 14.65C14.133 13.8333 14.3996 13.0166 15.533 12.8166L17.3163 12.5167C17.6163 12.4667 17.9663 12.2 18.0996 11.9333L19.083 9.96666C19.5663 8.89999 20.433 8.89999 20.9663 9.96666Z" fill="#FF8800"/>
</g>
</g>
</g>
</g>
</g>
</g>
</g>
<defs>
<clipPath id="clip0_5502_20087">
<rect width="40" height="40" fill="white"/>
</clipPath>
<clipPath id="clip1_5502_20087">
<rect width="16.6667" height="15" fill="white" transform="translate(3.33301 21.6667)"/>
</clipPath>
<clipPath id="clip2_5502_20087">
<rect width="11.6667" height="23.3333" fill="white" transform="translate(20 3.33334)"/>
</clipPath>
<clipPath id="clip3_5502_20087">
<rect width="6.66667" height="13.3333" fill="white" transform="translate(20 8.33334)"/>
</clipPath>
</defs>
</svg>
