<svg width="96" height="96" viewBox="0 0 96 96" fill="none" xmlns="http://www.w3.org/2000/svg">
<g id="Hard skills icons">
<g clip-path="url(#clip0_5502_20087)">
<g id="Body">
<g id="Icons/Skill Icon/Marketing Automation">
<g id="engine_gear_internet_option_security_setting_web_icon">
<path id="Path" fill-rule="evenodd" clip-rule="evenodd" d="M92.4911 38.2497H80.7276C80.1408 36.3532 79.3805 34.5148 78.4562 32.7578L86.7619 24.4521C87.4037 23.8156 87.7647 22.9491 87.7647 22.0452C87.7647 21.1412 87.4037 20.2747 86.7619 19.6382L77.2019 10.0782C76.5653 9.43639 75.6988 9.0754 74.7949 9.0754C73.891 9.0754 73.0245 9.43639 72.388 10.0782L64.0823 18.3839C62.3253 17.4596 60.4869 16.6993 58.5903 16.1125V4.34894C58.5903 2.47665 57.0726 0.958862 55.2003 0.958862H41.6399C39.7677 0.958862 38.2499 2.47665 38.2499 4.34894V16.1125C36.3533 16.6993 34.5149 17.4596 32.7579 18.3839L24.4522 10.0782C23.8157 9.43639 22.9492 9.0754 22.0453 9.0754C21.1414 9.0754 20.2749 9.43639 19.6383 10.0782L10.0783 19.6382C9.43651 20.2747 9.07552 21.1412 9.07552 22.0452C9.07552 22.9491 9.43651 23.8156 10.0783 24.4521L18.384 32.7578C17.9772 33.5375 17.6043 34.3511 17.2314 35.1648C16.8029 36.1721 16.4294 37.2019 16.1126 38.2497H4.34906C2.47677 38.2497 0.958984 39.7675 0.958984 41.6398V55.2001C0.958984 57.0724 2.47677 58.5902 4.34906 58.5902H16.1126C16.6994 60.4868 17.4597 62.3252 18.384 64.0821L10.0783 72.3878C9.43651 73.0244 9.07552 73.8909 9.07552 74.7948C9.07552 75.6987 9.43651 76.5652 10.0783 77.2018L19.6383 86.7618C20.2749 87.4036 21.1414 87.7646 22.0453 87.7646C22.9492 87.7646 23.8157 87.4036 24.4522 86.7618L32.7579 78.4561C34.5149 79.3803 36.3533 80.1407 38.2499 80.7274V92.491C38.2499 94.3633 39.7677 95.8811 41.6399 95.8811H55.2003C57.0726 95.8811 58.5903 94.3633 58.5903 92.491V80.7274C60.4869 80.1407 62.3253 79.3803 64.0823 78.4561L72.388 86.7618C73.0245 87.4036 73.891 87.7646 74.7949 87.7646C75.6988 87.7646 76.5653 87.4036 77.2019 86.7618L86.7619 77.2018C87.4037 76.5652 87.7647 75.6987 87.7647 74.7948C87.7647 73.8909 87.4037 73.0244 86.7619 72.3878L78.4562 64.0821C79.3805 62.3252 80.1408 60.4868 80.7276 58.5902H92.4911C94.3634 58.5902 95.8812 57.0724 95.8812 55.2001V41.6398C95.8812 39.7675 94.3634 38.2497 92.4911 38.2497Z" fill="#FFBB38"/>
<circle id="Oval" cx="48.4197" cy="48.42" r="28.2849" fill="#5E6780"/>
</g>
<g id="Group">
<ellipse id="Oval_2" cx="48.2797" cy="47.6842" rx="19.2182" ry="19.3681" fill="white"/>
<path id="Path_2" fill-rule="evenodd" clip-rule="evenodd" d="M45.5721 56.8209C43.8206 57.9628 42.3877 57.1771 42.3877 55.0749V40.294C42.3877 38.1914 43.8208 37.4057 45.5721 38.5474L56.3982 45.6073C58.1499 46.7494 58.1499 48.6188 56.3982 49.7605L45.5721 56.8209Z" fill="#5E6780"/>
</g>
</g>
</g>
</g>
</g>
<defs>
<clipPath id="clip0_5502_20087">
<path d="M-6435 -220C-6435 -231.046 -6426.05 -240 -6415 -240H10002.7C10013.7 -240 10022.7 -231.046 10022.7 -220V132C10022.7 143.046 10013.7 152 10002.7 152H-6415C-6426.05 152 -6435 143.046 -6435 132V-220Z" fill="white"/>
</clipPath>
</defs>
</svg>
